<?xml version="1.0" encoding="UTF-8"?>
<svg id="Camada_1" xmlns="http://www.w3.org/2000/svg" version="1.1" viewBox="0 0 1015.8 1015.7">
  <!-- Generator: Adobe Illustrator 30.1.0, SVG Export Plug-In . SVG Version: 2.1.1 Build 136)  -->
  <defs>
    <style>
      .st0 {
        fill: #fff;
      }
    </style>
  </defs>
  <path class="st0" d="M1014.6,238l1.2,632.7c.2,77.3-67.5,145-144.9,144.9l-729.4-.5c-75.6,0-140.4-70.3-140.5-144.2L0,259C-.1,181.1,52.8,112.7,132.1,104.1c40.3-4.4,80.8-1.6,121.2-1.5l2.2-59.4c1-26.7,29.8-44.5,52.5-43.2,23.9,1.4,46.8,20.7,47.5,48l1.3,53.8h302.6c0,.1,2-53.9,2-53.9,1.1-28.9,26.2-48.6,51.6-48,26.8.7,49.4,23.1,49.6,51.5l.3,50.5c41.7.1,75.3-1.5,118.9,1.7,63.9,4.8,132.5,61.2,132.7,134.2h0ZM762.1,256.9c-.6,30.2-27.3,49.4-52.8,48.1-23.2-1.2-46.6-20-47.7-47l-2.2-55.6h-301.8s-2.9,59.5-2.9,59.5c-1.4,28.2-31.5,45.5-54.8,42.9-24.9-2.7-45.3-23.5-45.4-50.3l-.2-52.1-102.8.5c-30.5.1-49.5,28.2-49.4,55.2l.5,97.9h811.9c0,0,.5-97.5.5-97.5.2-30.9-21.1-55.7-53.7-55.8l-98.1-.3-1,54.5h0ZM867.9,914.5c28.3-3.8,46.8-22.5,46.8-49l-.2-408.7H102.3c0,.1-.2,404-.2,404,0,30.2,18.1,51.9,49.3,53.7h716.5Z"/>
  <path class="st0" d="M312,814l-109.5-.4c-28,0-48.6-25.2-49.5-49.6-.9-25.8,19.9-52.5,49.6-52.6h103.2c27.2-.2,47.1,21.9,49.6,44.8,3,27-13.9,49.7-43.4,57.8h0Z"/>
  <path class="st0" d="M562.3,813.2l-105.4.4c-28.4.1-48.9-24.5-49.8-49.6-1-26.5,19.8-52.6,50-52.6l102.8-.2c28.6,0,48.9,23.8,49.9,49.6.9,23.2-17.4,52.3-47.5,52.4Z"/>
  <path class="st0" d="M864,760.7c2.3,68.5-92.7,54.4-157.1,52.4-26.5-.8-44.9-26.3-45.8-49.3-.9-23.7,18-51,46-51.9,37.3-1.2,74.1-1.2,111.6.2,26.1,1,44.5,26.8,45.2,48.7h0Z"/>
  <path class="st0" d="M304.5,660.5l-106.8-.8c-25.4-.2-43.2-24.2-44.8-46.6-1.4-20.6,13.9-52.1,40.1-52.2l117.8-.8c27.1-.2,44.9,26.6,45,49.5.1,26.3-20.5,51.1-51.5,50.9h0Z"/>
  <path class="st0" d="M555.7,660.6h-94.5c-29.4,0-51.9-18.4-54.1-47.6-1.7-22.9,15.4-52.9,44.6-52.9h113.5c29.1,0,46.2,30.2,44.6,52.9-2.1,29.3-24.7,47.6-54.1,47.6h0Z"/>
  <path class="st0" d="M864.1,609.5c.6,65.9-88.7,52.5-158.2,50.1-27.3-.9-45-26.2-44.8-50.7.2-22.4,17.8-48.9,44.8-48.8l118,.7c24.6.1,40,29,40.2,48.7h0Z"/>
</svg>