<?xml version="1.0" encoding="UTF-8"?>
<svg id="Camada_1" data-name="Camada 1" xmlns="http://www.w3.org/2000/svg" width="28.75cm" height="3.69cm" xmlns:xlink="http://www.w3.org/1999/xlink" viewBox="0 0 815.01 104.69">
  <defs>
    <style>
      .cls-1 {
        fill: url(#GRADIENTE_VERDE_cópia_2-6);
      }

      .cls-2 {
        fill: url(#GRADIENTE_VERDE_cópia_2-4);
      }

      .cls-3 {
        fill: url(#GRADIENTE_VERDE_cópia_2-9);
      }

      .cls-4 {
        fill: none;
      }

      .cls-5 {
        fill: url(#GRADIENTE_VERDE_cópia_2-5);
      }

      .cls-6 {
        clip-path: url(#clippath-3);
      }

      .cls-7 {
        fill: url(#GRADIENTE_VERDE_cópia_2-2);
      }

      .cls-8 {
        fill: url(#Gradiente_sem_nome_4);
      }

      .cls-9 {
        fill: #575756;
      }

      .cls-10 {
        fill: url(#GRADIENTE_VERDE_cópia_2-3);
      }

      .cls-11 {
        fill: url(#Gradiente_sem_nome_4-2);
      }

      .cls-12 {
        fill: url(#GRADIENTE_VERDE_cópia_2-7);
      }

      .cls-13 {
        fill: url(#GRADIENTE_VERDE_cópia_2-8);
      }

      .cls-14 {
        clip-path: url(#clippath);
      }

      .cls-15 {
        fill: url(#GRADIENTE_VERDE_cópia_2);
      }
    </style>
    <clipPath id="clippath">
      <rect class="cls-4" x="101.55" y="28.61" width="713.46" height="75.65"/>
    </clipPath>
    <clipPath id="clippath-3">
      <rect class="cls-4" x="101.55" y="28.61" width="713.46" height="75.65"/>
    </clipPath>
    <linearGradient id="GRADIENTE_VERDE_cópia_2" data-name="GRADIENTE VERDE cópia 2" x1="409.31" y1="28.61" x2="409.31" y2="73.18" gradientUnits="userSpaceOnUse">
      <stop offset="0" stop-color="#87b626"/>
      <stop offset="1" stop-color="#316d31"/>
    </linearGradient>
    <linearGradient id="GRADIENTE_VERDE_cópia_2-2" data-name="GRADIENTE VERDE cópia 2" x1="462.61" y1="28.61" x2="462.61" y2="73.18" xlink:href="#GRADIENTE_VERDE_cópia_2"/>
    <linearGradient id="GRADIENTE_VERDE_cópia_2-3" data-name="GRADIENTE VERDE cópia 2" x1="536.47" x2="536.47" xlink:href="#GRADIENTE_VERDE_cópia_2"/>
    <linearGradient id="GRADIENTE_VERDE_cópia_2-4" data-name="GRADIENTE VERDE cópia 2" x1="626.09" x2="626.09" xlink:href="#GRADIENTE_VERDE_cópia_2"/>
    <linearGradient id="GRADIENTE_VERDE_cópia_2-5" data-name="GRADIENTE VERDE cópia 2" x1="689.2" x2="689.2" xlink:href="#GRADIENTE_VERDE_cópia_2"/>
    <linearGradient id="GRADIENTE_VERDE_cópia_2-6" data-name="GRADIENTE VERDE cópia 2" x1="756.06" x2="756.06" xlink:href="#GRADIENTE_VERDE_cópia_2"/>
    <linearGradient id="GRADIENTE_VERDE_cópia_2-7" data-name="GRADIENTE VERDE cópia 2" x1="809.1" x2="809.1" y2="39.61" xlink:href="#GRADIENTE_VERDE_cópia_2"/>
    <linearGradient id="GRADIENTE_VERDE_cópia_2-8" data-name="GRADIENTE VERDE cópia 2" x1="809.46" y1="31.33" x2="809.46" y2="36.89" xlink:href="#GRADIENTE_VERDE_cópia_2"/>
    <linearGradient id="GRADIENTE_VERDE_cópia_2-9" data-name="GRADIENTE VERDE cópia 2" x1="581.31" y1="28.61" x2="581.31" y2="73.18" xlink:href="#GRADIENTE_VERDE_cópia_2"/>
    <linearGradient id="Gradiente_sem_nome_4" data-name="Gradiente sem nome 4" x1="47.61" y1="0" x2="47.61" y2="102.41" gradientUnits="userSpaceOnUse">
      <stop offset="0" stop-color="#87b626"/>
      <stop offset="1" stop-color="#2f702f"/>
    </linearGradient>
    <linearGradient id="Gradiente_sem_nome_4-2" data-name="Gradiente sem nome 4" x1="47.61" y1="11.96" x2="47.61" y2="90.45" xlink:href="#Gradiente_sem_nome_4"/>
  </defs>
  <g class="cls-14">
    <g>
      <path class="cls-9" d="M180.48,33.84c.03-1.3-.33-2.34-1.09-3.11-.76-.76-1.86-1.31-3.29-1.64-1.43-.33-3.13-.49-5.1-.49-2.55,0-5.21.24-8,.71-2.8.47-5.24,1.3-7.33,2.48l-54.12,41.38h17.24l10-7.36h23.53l-3.72,7.36h13.05l17.34-34.47c.95-1.95,1.44-3.58,1.47-4.87ZM163.47,43.5l-5.81,11.61h-15.05l14.58-10.63c.89-.59,1.78-1.17,2.67-1.73.89-.56,1.69-.84,2.38-.84.64,0,1.05.18,1.24.53.19.35.19.71,0,1.06Z"/>
      <path class="cls-9" d="M239.81,50.01c-.03-.85-.24-1.63-.61-2.31-.38-.68-.92-1.23-1.62-1.64-.7-.41-1.49-.62-2.38-.62h-28.96l-5.53,10.9h22.87l-2.38,4.87h-31.72l10.38-20.64h45.45l6-11.96h-51.54c-.89,0-1.9.21-3.05.62-1.14.41-2.24.96-3.29,1.64-1.04.68-2.02,1.45-2.91,2.31-.89.85-1.56,1.73-2,2.61l-15.15,30.21c-.44.89-.65,1.76-.62,2.62.03.86.24,1.62.62,2.31.38.68.92,1.23,1.62,1.64.7.41,1.49.62,2.38.62h43.92c.89,0,1.91-.21,3.05-.62s2.24-.96,3.29-1.64c1.04-.68,2.01-1.45,2.9-2.31.89-.85,1.56-1.73,2-2.62l6.67-13.37c.44-.89.65-1.76.61-2.61Z"/>
      <path class="cls-9" d="M311.38,35.79c.44-.89.65-1.75.62-2.61-.04-.85-.24-1.63-.62-2.31-.38-.67-.92-1.22-1.62-1.64-.7-.41-1.49-.62-2.38-.62h-48.02l-6,11.96h41.92l-2.48,4.87h-41.92l-13.91,27.73h13.72l8.38-16.83h15.24l5.62,16.83h14.29l-4.76-16.83h3.91c.89,0,1.9-.21,3.05-.62,1.14-.41,2.23-.96,3.29-1.64,1.04-.68,2.01-1.45,2.91-2.31.88-.85,1.56-1.73,2-2.61l6.76-13.38Z"/>
      <path class="cls-9" d="M378.71,30.87c-.38-.68-.92-1.23-1.62-1.64-.7-.42-1.49-.62-2.38-.62h-44.11c-.89,0-1.91.2-3.05.62-1.14.41-2.24.96-3.28,1.64-1.05.68-2.02,1.45-2.91,2.3-.89.85-1.56,1.73-2,2.61l-15.15,30.21c-.45.89-.65,1.76-.62,2.61.03.86.24,1.63.62,2.31.38.68.92,1.22,1.62,1.64.7.41,1.49.61,2.38.61h44.11c.89,0,1.9-.2,3.05-.61,1.14-.42,2.24-.96,3.29-1.64,1.04-.68,2.02-1.45,2.91-2.31.89-.85,1.56-1.72,2-2.61l15.15-30.21c.44-.89.65-1.76.62-2.61-.03-.85-.24-1.62-.62-2.3ZM352.23,61.22h-31.92l10.39-20.65h31.91l-10.38,20.65Z"/>
    </g>
  </g>
  <g class="cls-6">
    <g>
      <path class="cls-15" d="M437.51,52.63c.44-.89.65-1.76.62-2.62-.03-.85-.24-1.62-.62-2.3-.38-.68-.92-1.23-1.62-1.64-.7-.41-1.49-.62-2.38-.62h-36.87l2.47-4.87h44.49l6-11.96h-50.63c-.88,0-1.89.21-3.01.62-1.14.41-2.24.96-3.29,1.64-1.04.68-2.02,1.45-2.91,2.31-.89.85-1.56,1.72-1.99,2.61l-6.77,13.38c-.44.89-.65,1.76-.62,2.61.03.86.24,1.63.62,2.31.38.68.92,1.23,1.62,1.64.7.41,1.49.62,2.38.62h36.87l-2.38,4.87h-44.49l-6,11.96h50.58c.89,0,1.9-.21,3.05-.62,1.14-.42,2.24-.96,3.28-1.64,1.05-.68,2.02-1.45,2.91-2.3.89-.86,1.56-1.73,2-2.62l6.67-13.37Z"/>
      <path class="cls-7" d="M492.86,30.21c-.75-1.04-2.18-1.58-4.28-1.6h-6.1c-4.32,0-8.67,2.13-13.05,6.38l-38.78,38.19h16.2l7.62-7.44h25.62l.28,7.44h14.2l-.47-38.19c-.06-2.12-.47-3.72-1.24-4.78ZM465.42,55.1l14.38-13.38.28,13.38h-14.67Z"/>
      <path class="cls-10" d="M566.59,49.17l6.76-13.38c.45-.89.65-1.76.62-2.61-.03-.86-.24-1.63-.62-2.31-.38-.68-.92-1.23-1.62-1.64-.69-.41-1.47-.61-2.34-.62h-48.06l-6,11.96h41.92l-2.48,4.87h-41.91l-13.91,27.73h13.72l8.38-16.83h34.3c.89,0,1.9-.21,3.05-.62,1.14-.42,2.24-.96,3.29-1.64,1.04-.68,2.01-1.45,2.9-2.31.89-.85,1.56-1.73,2-2.61Z"/>
      <path class="cls-2" d="M608.64,56.35h39.92l5.53-10.9h-39.92l2.48-4.87h40.01l6-11.96h-46.15c-.88,0-1.89.21-3.01.62-1.14.41-2.24.96-3.29,1.64-1.05.68-2.02,1.45-2.9,2.31-.89.85-1.56,1.72-2,2.61l-15.15,30.21c-.44.89-.65,1.76-.62,2.62.03.85.24,1.62.62,2.3.38.68.92,1.22,1.61,1.64.7.41,1.5.62,2.39.62h46.11l6-11.96h-40.01l2.38-4.87Z"/>
      <path class="cls-5" d="M716.36,28.61l-14.01,27.82c-3.11-4.84-5.86-8.97-8.24-12.4-2.38-3.42-4.48-6.25-6.28-8.46-1.82-2.22-3.35-3.87-4.63-4.96-1.27-1.09-2.31-1.73-3.14-1.91-.06-.05-.23-.08-.52-.09h-1.06c-1.06,0-2.14.17-3.24.48-1.11.33-2.14.76-3.1,1.29-.95.53-1.8,1.14-2.52,1.82-.73.68-1.29,1.34-1.67,1.99l-19.63,38.99h13.72l14.01-27.91c6.34,9.39,11.3,16.32,14.86,20.78,3.55,4.45,6.06,6.8,7.53,7.04.06.06.22.09.47.09h1.04c1.02,0,2.08-.16,3.2-.49,1.11-.33,2.16-.76,3.14-1.28.98-.53,1.86-1.12,2.62-1.77.76-.65,1.3-1.32,1.62-2.03l19.53-38.99h-13.71Z"/>
      <path class="cls-1" d="M745.73,28.61c-.88,0-1.88.21-3,.62-1.14.41-2.24.96-3.29,1.64-1.05.68-2.02,1.45-2.91,2.31-.89.85-1.56,1.72-2,2.61l-6.77,13.38c-.44.89-.65,1.76-.61,2.61.03.86.24,1.63.61,2.31.38.68.93,1.23,1.62,1.64.7.41,1.49.62,2.38.62h36.87l-2.38,4.87h-44.49l-6,11.96h50.59c.89,0,1.91-.21,3.05-.62,1.14-.42,2.24-.96,3.28-1.64,1.05-.68,2.02-1.45,2.91-2.3.89-.86,1.56-1.73,2-2.62l6.67-13.37c.45-.89.65-1.76.62-2.62-.04-.85-.23-1.62-.62-2.3-.38-.68-.92-1.23-1.61-1.64-.71-.41-1.5-.62-2.38-.62h-36.87l2.47-4.87h44.5l6-11.96h-50.63Z"/>
      <path class="cls-12" d="M814.55,31.97c-.31-.67-.73-1.25-1.27-1.74-.53-.5-1.16-.89-1.88-1.18-.72-.29-1.48-.43-2.3-.43s-1.58.14-2.3.43c-.72.29-1.35.68-1.88,1.18-.53.5-.95,1.08-1.27,1.74-.31.67-.47,1.38-.47,2.14s.15,1.47.47,2.14.73,1.25,1.27,1.75c.53.5,1.16.89,1.88,1.18.71.28,1.48.43,2.3.43s1.58-.15,2.3-.43c.72-.28,1.35-.68,1.88-1.18.53-.5.95-1.08,1.27-1.75s.47-1.38.47-2.14-.15-1.47-.47-2.14ZM813.46,35.86c-.25.55-.59,1.02-1.01,1.43-.43.41-.93.73-1.51.96-.57.24-1.19.36-1.84.36s-1.27-.12-1.84-.36c-.58-.23-1.08-.56-1.51-.96-.42-.41-.76-.88-1.01-1.43-.25-.55-.38-1.13-.38-1.75s.12-1.2.38-1.75c.25-.55.59-1.03,1.01-1.43.43-.4.92-.72,1.51-.96.57-.24,1.19-.36,1.84-.36s1.27.12,1.84.36c.58.24,1.08.56,1.51.96.42.41.76.89,1.01,1.43.25.55.38,1.13.38,1.75s-.12,1.2-.38,1.75Z"/>
      <path class="cls-13" d="M810.59,34.31c.19-.06.35-.16.49-.28.14-.13.25-.28.33-.46.08-.19.13-.41.13-.67,0-1.04-.69-1.57-2.06-1.57h-2.27v5.56h.94v-2.41h.72l1.71,2.41h1.14l-1.71-2.43c.21-.03.41-.07.59-.14ZM808.14,33.69v-1.57h1.36c.32,0,.58.06.79.18.2.11.31.3.31.56,0,.29-.12.51-.35.64-.23.12-.58.19-1.04.19h-1.06Z"/>
      <polygon class="cls-3" points="585.61 28.61 563.22 73.18 577.03 73.18 599.41 28.61 585.61 28.61"/>
    </g>
  </g>
  <g>
    <path class="cls-8" d="M86.84,19.64L55.68,2.1c-4.98-2.8-11.16-2.8-16.14,0L8.38,19.64C3.21,22.55,0,28.04,0,33.97v34.47c0,5.93,3.21,11.43,8.38,14.34l31.16,17.53c2.49,1.4,5.28,2.1,8.07,2.1s5.58-.7,8.07-2.1l31.16-17.54c5.17-2.91,8.38-8.4,8.38-14.34v-34.47c0-5.93-3.21-11.43-8.38-14.34ZM89.76,68.44c0,3.96-2.15,7.63-5.6,9.58l-31.16,17.53c-3.32,1.87-7.46,1.87-10.78,0l-31.16-17.53c-3.45-1.94-5.6-5.61-5.6-9.58v-34.47c0-3.96,2.15-7.63,5.6-9.58L42.22,6.86c1.66-.94,3.53-1.4,5.39-1.4s3.73.47,5.39,1.4l31.16,17.54c3.45,1.94,5.6,5.61,5.6,9.58v34.47Z"/>
    <path class="cls-11" d="M78.27,28.26l-26.12-15.08c-2.81-1.62-6.28-1.62-9.09,0l-26.12,15.08c-2.81,1.62-4.55,4.63-4.55,7.87v30.16c0,3.25,1.73,6.25,4.55,7.87l26.12,15.08c2.81,1.62,6.28,1.62,9.09,0l26.12-15.08c2.81-1.62,4.55-4.62,4.55-7.87v-30.16c0-3.25-1.73-6.25-4.55-7.87ZM62.21,61.5c3.47-1.45,7.55-.17,9.48,3.17,2.1,3.63.85,8.27-2.78,10.36-3.63,2.09-8.27.85-10.36-2.78-1.62-2.81-1.22-6.22.73-8.6l-9.5-11.8c-.68.26-1.4.42-2.17.42-.96,0-1.86-.25-2.66-.65l-8.87,9.19c.75,1.96.01,4.22-1.86,5.3-2.07,1.2-4.72.49-5.92-1.59-1.2-2.07-.49-4.72,1.59-5.92,1.13-.65,2.43-.72,3.57-.33l8.88-9.19c-.46-.85-.75-1.81-.75-2.85,0-.17.04-.32.05-.49l-14.54-5.98c-.44.53-.96,1-1.59,1.36-2.88,1.67-6.57.68-8.24-2.21-1.66-2.88-.68-6.57,2.21-8.24,2.88-1.66,6.57-.68,8.24,2.21.64,1.11.88,2.33.78,3.52l14.53,5.97c1.1-1.31,2.74-2.17,4.59-2.17.24,0,.47.04.71.07l3.85-8.46c-1.3-1.18-2.01-2.95-1.76-4.82.41-3.01,3.18-5.12,6.2-4.71,3.01.41,5.12,3.19,4.71,6.2-.39,2.87-2.94,4.9-5.78,4.72l-3.9,8.57c.64.58,1.17,1.28,1.51,2.09l10.13-.97c.6-2.16,2.56-3.76,4.91-3.76,2.82,0,5.11,2.29,5.11,5.11s-2.29,5.11-5.11,5.11c-2,0-3.72-1.16-4.56-2.85l-10.14.97c-.16.75-.45,1.45-.86,2.07l9.58,11.91Z"/>
  </g>
  <g>
    <path class="cls-9" d="M384.6,83.84v3.34h-5.63v17.3h-4.24v-17.3h-5.63v-3.34h15.5Z"/>
    <path class="cls-9" d="M392.53,87.18v5.17h7.11v3.28h-7.11v5.47h8.02v3.37h-12.26v-20.67h12.26v3.37h-8.02Z"/>
    <path class="cls-9" d="M405.38,88.68c.94-1.61,2.22-2.86,3.84-3.75,1.62-.9,3.45-1.34,5.46-1.34,2.36,0,4.43.59,6.21,1.77,1.78,1.18,3.02,2.82,3.72,4.91h-4.87c-.48-.99-1.17-1.72-2.04-2.22-.88-.49-1.89-.74-3.04-.74-1.23,0-2.33.28-3.28.84-.96.56-1.71,1.36-2.24,2.38-.54,1.03-.8,2.23-.8,3.61s.27,2.56.8,3.59c.53,1.04,1.28,1.83,2.24,2.39.96.56,2.05.84,3.28.84,1.15,0,2.16-.25,3.04-.75.88-.5,1.56-1.25,2.04-2.23h4.87c-.71,2.11-1.94,3.75-3.71,4.92-1.77,1.17-3.84,1.76-6.22,1.76-2.02,0-3.84-.45-5.46-1.35-1.62-.9-2.91-2.14-3.84-3.74-.94-1.6-1.41-3.41-1.41-5.44s.47-3.85,1.41-5.46Z"/>
    <path class="cls-9" d="M446.92,104.48h-4.24l-9.6-14.16v14.16h-4.24v-20.67h4.24l9.6,14.19v-14.19h4.24v20.67Z"/>
    <path class="cls-9" d="M456.06,103.33c-1.65-.91-2.97-2.16-3.93-3.77-.97-1.61-1.45-3.42-1.45-5.45s.48-3.82,1.45-5.43,2.28-2.86,3.93-3.77c1.65-.91,3.47-1.36,5.45-1.36s3.82.45,5.46,1.36c1.64.91,2.95,2.16,3.91,3.77.96,1.61,1.44,3.42,1.44,5.43s-.48,3.85-1.44,5.45c-.96,1.61-2.27,2.86-3.92,3.77-1.66.91-3.47,1.36-5.45,1.36s-3.79-.45-5.45-1.36ZM464.87,100.15c.97-.56,1.73-1.37,2.27-2.41.54-1.04.82-2.26.82-3.64s-.27-2.59-.82-3.62-1.3-1.83-2.27-2.38-2.09-.83-3.36-.83-2.4.28-3.38.83c-.98.55-1.74,1.34-2.29,2.38s-.82,2.24-.82,3.62.27,2.59.82,3.64c.54,1.04,1.31,1.85,2.29,2.41.98.56,2.1.84,3.38.84s2.39-.28,3.36-.84Z"/>
    <path class="cls-9" d="M480.31,101.2h6.96v3.28h-11.2v-20.64h4.24v17.36Z"/>
    <path class="cls-9" d="M494.93,103.33c-1.65-.91-2.97-2.16-3.93-3.77-.97-1.61-1.45-3.42-1.45-5.45s.48-3.82,1.45-5.43,2.28-2.86,3.93-3.77c1.65-.91,3.47-1.36,5.45-1.36s3.82.45,5.46,1.36c1.64.91,2.95,2.16,3.91,3.77.96,1.61,1.44,3.42,1.44,5.43s-.48,3.85-1.44,5.45c-.96,1.61-2.27,2.86-3.92,3.77-1.66.91-3.47,1.36-5.45,1.36s-3.79-.45-5.45-1.36ZM503.74,100.15c.97-.56,1.73-1.37,2.27-2.41.54-1.04.82-2.26.82-3.64s-.27-2.59-.82-3.62-1.3-1.83-2.27-2.38-2.09-.83-3.36-.83-2.4.28-3.38.83c-.98.55-1.74,1.34-2.29,2.38s-.82,2.24-.82,3.62.27,2.59.82,3.64c.54,1.04,1.31,1.85,2.29,2.41.98.56,2.1.84,3.38.84s2.39-.28,3.36-.84Z"/>
    <path class="cls-9" d="M529.65,90.05c-.48-.87-1.15-1.53-2-1.98s-1.84-.68-2.97-.68c-1.25,0-2.36.28-3.33.83s-1.73,1.34-2.27,2.37c-.54,1.03-.82,2.21-.82,3.55s.28,2.58.83,3.61c.55,1.03,1.33,1.81,2.32,2.37.99.55,2.14.83,3.45.83,1.61,0,2.94-.42,3.96-1.26,1.03-.84,1.71-2,2.03-3.5h-7.26v-3.16h11.44v3.61c-.28,1.44-.89,2.77-1.82,3.99-.93,1.22-2.12,2.2-3.59,2.94s-3.1,1.11-4.92,1.11c-2.04,0-3.88-.45-5.52-1.35-1.65-.9-2.94-2.14-3.88-3.74-.94-1.6-1.41-3.41-1.41-5.44s.47-3.85,1.41-5.46,2.23-2.86,3.88-3.75c1.64-.9,3.48-1.34,5.49-1.34,2.38,0,4.45.57,6.21,1.7,1.76,1.13,2.97,2.72,3.63,4.77h-4.87Z"/>
    <path class="cls-9" d="M543.03,83.84v20.64h-4.24v-20.64h4.24Z"/>
    <path class="cls-9" d="M560.77,100.55h-8.42l-1.39,3.93h-4.45l7.6-20.67h4.93l7.6,20.67h-4.48l-1.39-3.93ZM559.62,97.24l-3.06-8.63-3.06,8.63h6.11Z"/>
    <path class="cls-9" d="M591.14,85.11c1.68.85,2.99,2.05,3.9,3.62.92,1.57,1.38,3.38,1.38,5.45s-.46,3.88-1.38,5.43c-.92,1.55-2.22,2.75-3.9,3.59-1.69.85-3.64,1.27-5.86,1.27h-7.39v-20.64h7.39c2.22,0,4.17.42,5.86,1.27ZM590.28,99.19c1.21-1.18,1.82-2.85,1.82-5s-.61-3.83-1.82-5.04c-1.21-1.21-2.93-1.82-5.15-1.82h-3v13.63h3c2.22,0,3.93-.59,5.15-1.77Z"/>
    <path class="cls-9" d="M604.44,87.18v5.17h7.11v3.28h-7.11v5.47h8.02v3.37h-12.26v-20.67h12.26v3.37h-8.02Z"/>
    <path class="cls-9" d="M639.33,93.33c-.53.97-1.37,1.75-2.51,2.34-1.14.59-2.58.89-4.31.89h-3.54v7.92h-4.24v-20.64h7.78c1.63,0,3.03.28,4.18.83s2.01,1.31,2.59,2.28c.58.97.86,2.06.86,3.28,0,1.1-.27,2.14-.8,3.1ZM634.93,92.43c.56-.52.85-1.26.85-2.2,0-2.01-1.15-3.02-3.45-3.02h-3.36v6h3.36c1.17,0,2.04-.26,2.6-.78Z"/>
    <path class="cls-9" d="M654.63,104.48l-4.66-8.04h-2v8.04h-4.24v-20.64h7.93c1.63,0,3.03.28,4.18.84s2.01,1.32,2.59,2.28c.58.96.86,2.03.86,3.21,0,1.36-.4,2.59-1.21,3.68-.81,1.09-2.01,1.85-3.6,2.26l5.06,8.37h-4.9ZM647.97,93.33h3.54c1.15,0,2.01-.27,2.57-.81.56-.54.85-1.3.85-2.26s-.28-1.68-.85-2.2c-.57-.52-1.42-.78-2.57-.78h-3.54v6.06Z"/>
    <path class="cls-9" d="M667.98,87.18v5.17h7.11v3.28h-7.11v5.47h8.02v3.37h-12.26v-20.67h12.26v3.37h-8.02Z"/>
    <path class="cls-9" d="M680.83,88.68c.94-1.61,2.22-2.86,3.84-3.75,1.62-.9,3.45-1.34,5.46-1.34,2.36,0,4.43.59,6.21,1.77,1.78,1.18,3.02,2.82,3.72,4.91h-4.87c-.48-.99-1.17-1.72-2.04-2.22-.88-.49-1.89-.74-3.04-.74-1.23,0-2.33.28-3.29.84-.96.56-1.71,1.36-2.24,2.38-.54,1.03-.8,2.23-.8,3.61s.27,2.56.8,3.59c.53,1.04,1.28,1.83,2.24,2.39.96.56,2.05.84,3.29.84,1.15,0,2.16-.25,3.04-.75.88-.5,1.56-1.25,2.04-2.23h4.87c-.71,2.11-1.94,3.75-3.71,4.92-1.77,1.17-3.84,1.76-6.22,1.76-2.02,0-3.84-.45-5.46-1.35-1.62-.9-2.91-2.14-3.84-3.74-.94-1.6-1.41-3.41-1.41-5.44s.47-3.85,1.41-5.46Z"/>
    <path class="cls-9" d="M708.54,83.84v20.64h-4.24v-20.64h4.24Z"/>
    <path class="cls-9" d="M716.64,103.95c-1.18-.49-2.11-1.2-2.8-2.13-.69-.93-1.04-2.02-1.06-3.28h4.54c.06.85.37,1.52.92,2.01.55.49,1.32.74,2.29.74s1.77-.23,2.33-.69c.56-.46.85-1.07.85-1.82,0-.61-.19-1.11-.57-1.51-.38-.39-.86-.7-1.44-.93-.58-.23-1.37-.48-2.38-.75-1.37-.39-2.49-.78-3.34-1.17-.86-.38-1.59-.96-2.21-1.74-.62-.78-.92-1.82-.92-3.12,0-1.22.31-2.29.94-3.19.62-.91,1.5-1.6,2.63-2.08,1.13-.48,2.42-.72,3.88-.72,2.18,0,3.95.52,5.31,1.55s2.11,2.48,2.25,4.33h-4.66c-.04-.71-.35-1.3-.92-1.76s-1.34-.7-2.29-.7c-.83,0-1.49.21-1.98.62-.5.41-.74,1.02-.74,1.8,0,.55.19,1.01.56,1.38.37.36.84.66,1.39.89.55.23,1.34.49,2.35.78,1.37.39,2.49.79,3.36,1.18.87.39,1.61.99,2.24,1.77.62.79.94,1.82.94,3.1,0,1.1-.29,2.13-.88,3.07-.59.95-1.44,1.7-2.57,2.26s-2.47.84-4.03.84c-1.47,0-2.8-.25-3.98-.74Z"/>
    <path class="cls-9" d="M745.32,100.55h-8.42l-1.39,3.93h-4.45l7.6-20.67h4.93l7.6,20.67h-4.48l-1.39-3.93ZM736.92,79.33c.66-.64,1.49-.96,2.5-.96.42,0,.8.06,1.12.19.32.13.69.31,1.09.55.61.37,1.11.56,1.51.56.75,0,1.18-.42,1.3-1.27h2.27c-.18,1.3-.6,2.27-1.26,2.91-.66.64-1.49.96-2.5.96-.42,0-.8-.06-1.12-.19-.32-.13-.69-.31-1.09-.55-.59-.39-1.09-.59-1.51-.59-.75,0-1.19.43-1.33,1.3h-2.24c.18-1.3.6-2.27,1.26-2.91ZM744.17,97.24l-3.06-8.63-3.06,8.63h6.11Z"/>
    <path class="cls-9" d="M759,103.33c-1.65-.91-2.97-2.16-3.93-3.77-.97-1.61-1.45-3.42-1.45-5.45s.48-3.82,1.45-5.43,2.28-2.86,3.93-3.77c1.65-.91,3.47-1.36,5.45-1.36s3.82.45,5.46,1.36c1.64.91,2.95,2.16,3.91,3.77.96,1.61,1.44,3.42,1.44,5.43s-.48,3.85-1.44,5.45c-.96,1.61-2.27,2.86-3.92,3.77-1.66.91-3.47,1.36-5.45,1.36s-3.79-.45-5.45-1.36ZM767.81,100.15c.97-.56,1.73-1.37,2.27-2.41.54-1.04.82-2.26.82-3.64s-.27-2.59-.82-3.62-1.3-1.83-2.27-2.38-2.09-.83-3.36-.83-2.4.28-3.38.83c-.98.55-1.74,1.34-2.29,2.38s-.82,2.24-.82,3.62.27,2.59.82,3.64c.54,1.04,1.31,1.85,2.29,2.41.98.56,2.1.84,3.38.84s2.39-.28,3.36-.84Z"/>
  </g>
</svg>