<?xml version="1.0" encoding="UTF-8"?>
<svg id="Camada_1" xmlns="http://www.w3.org/2000/svg" version="1.1" viewBox="0 0 1080 1080">
  <!-- Generator: Adobe Illustrator 30.1.0, SVG Export Plug-In . SVG Version: 2.1.1 Build 136)  -->
  <path d="M585.4,232.1c-7.4-10.4-15.6-16.3-27.5-20h-13.3l-14.4,5.9c-5.7,3.4-9.2,7.5-13.1,12.9-15.4,20.9-31.4,52-44.6,75.3-46.1,81.6-107.4,193.1-128.9,284.8-32.2,137.5,68.4,270.6,200.3,274.8,136.3,4.3,246.7-130.1,214.2-272.8-18-78.9-66.7-171.8-104.8-242.6-19.7-36.6-44.5-85.2-67.9-118.3h0ZM514.2,772.4c-3.1,10-11.8,16.3-21.2,16.3s-4.6-.4-7-1.2c-91.2-31.7-101.5-143.3-94.2-197.9,1.7-12.9,13.1-21.9,25.2-20.1,12.2,1.8,20.7,13.8,19,26.6-.6,4.9-14.5,119.1,64,146.4,11.7,4.1,18.1,17.4,14.2,29.8h0Z"/>
  <path d="M134.3,379.8c4.9,2.5,10.1,3.6,15.2,3.6,12.3,0,24.2-6.8,30.1-18.5.4-.9,46.3-90.2,137.8-158.6,110.1-82.3,235.8-98,374.1-46.9l-32.6,26.2,191.9,18-121.1-150.1-4.3,46.6c-204.7-79.6-356-17-448.5,52.1-104,77.7-155.4,177.9-157.6,182.2-8.4,16.6-1.8,36.9,14.9,45.3h0Z"/>
  <path d="M1041.8,507.1c-11.3-129.3-69.4-225.8-71.9-229.9-9.7-15.9-30.4-20.9-46.3-11.2-15.9,9.7-20.9,30.4-11.3,46.3.5.9,53.1,88.9,62.5,203,11.1,136-41.8,250.3-157.3,340.4l-5.1-41.5-116.4,153.7,191.3-23.9-37.4-28.2c175.5-132.1,201.9-293.7,191.9-408.7h0Z"/>
  <path d="M575,962.3c-1,0-103.5,4.6-208.3-41.3-124.9-54.7-200.5-155.6-225-300l39,15.2-80.1-175.4-69.7,179.7,42.6-19.5c33,217.2,162.7,317.1,268.7,362.9,96.9,41.8,189.5,46.1,223.2,46.1s12.4-.2,13.3-.3c18.6-1,32.8-16.8,31.8-35.4-1-18.6-16.9-32.9-35.4-31.9h0Z"/>
</svg>