<?xml version="1.0" encoding="UTF-8"?>
<svg id="Camada_1" xmlns="http://www.w3.org/2000/svg" version="1.1" viewBox="0 0 1049.7 1031.5">
  <!-- Generator: Adobe Illustrator 30.1.0, SVG Export Plug-In . SVG Version: 2.1.1 Build 136)  -->
  <defs>
    <style>
      .st0 {
        fill: #fff;
      }
    </style>
  </defs>
  <path class="st0" d="M543.8,0l76.9,10.7c418.1,89.1,557.3,622.8,224,901.4C545.7,1162,89.4,996.3,11.1,620.6L.3,543.7c.8-18.7-1.1-37.7,0-56.4C15.1,226.9,227.1,14.9,487.5.1h56.4q0-.1,0-.1ZM487,109.4C176.1,129.9,1.5,488.8,181.1,746.5c162.8,233.7,504.7,234.3,668.3,1.2,196.4-279.7-24-660.6-362.4-638.3h.1Z"/>
  <path class="st0" d="M519.7,521.5h220.4c9.7,0,27.2,13.5,33.2,21.2,28.6,36.8.3,87.3-45.2,87.6-84.6-4.9-176,6.3-259.8,0-30.4-2.3-52.6-18.3-57.3-49.4,1.1-95.7-6.9-167.3,0-245.7,3.7-42.6,51.7-66.9,86.7-40.2,9.6,7.4,22.1,26.1,22.1,38.3v188.3h0q0,0,0,0Z"/>
</svg>