<?xml version="1.0" encoding="UTF-8"?>
<svg id="Camada_1" data-name="Camada 1" xmlns="http://www.w3.org/2000/svg" width="1049.86" height="744.52" viewBox="0 0 1049.86 744.52">
  <defs>
    <style>
      .cls-1 {
        fill: #fff;
      }
    </style>
  </defs>
  <path class="cls-1" d="M386.75,343.89c-34.92-31.3-77.06-51.31-122.87-59.07-51.61-8.75-135.03,7.8-181.43,34.39-8.33,1.75-18.88.86-28.62.67,22.97-29.37,45.52-35.63,77.65-49.39,6.59-7.19,11.97-17.23,21.12-21.23,16.97-7.44,35.62-7.09,54.38-10.15l22.72-163c-12.31-7.63-24.77-12.89-33.22-23.91-4.3-5.61-1.73-17.44.77-23.64,2.54-6.31,9.35-8.88,16.09-9.74,118.64-15.18,204.8-8.12,320.46,19.25,5.74,1.36,13.5,3.34,17.09,7.19,5.75,6.16-3.74,39.46-.8,55.3,8.8,47.34,17.82,93.16,22.57,141.06h13.52l2.58-186.19c.28-20.04,23.61-58.16,50.8-55.27,5.36,6.96,7,25.59-4.11,29.24-10.11,4.07-17.07,13.55-17.18,25.44l-1.76,187.02c88.77,5.42,171.35,14.81,257.01,36.03,14.84,4.2,28.47,8.49,41.88,15.1,10.28,5.43,17.33,13.26,21.23,24.41,7.96,22.76,11.65,46.77,10.7,70.6-59.36-18.3-123.64-14.95-174.4,20.22-43.69,38.78-68.66,72.15-76.89,132.57l-100.08.06-.2,56.05c-14.76,2.78-29.29,4.55-44.38,5.58-10.06-.39-19.22-2.62-27.79-7.63-13.97-.1-27.04.41-41.12-.55-8.81-.6-19.06-8.96-21.71-17.07-5.02-15.39,10.48-75.29-20.35-154.75-11.81-30.44-28.92-56.38-53.67-78.56v-.03ZM459.66,403.03l80.32-.05c1.61-53.05,2.11-104.26-.03-156.57-2.41-64.27-20.08-124.12-39.4-185.33-44.84-3.64-88.35-5.8-133.29-6.83-38.02-.49-74.51-.1-112.77,2.36l-16.74,150.07c39.33,6.5,76.78,18.09,112.18,36.47,22.16,11.83,41.83,25.31,59.38,43.12,31.34,31.23,48.7,71.74,50.34,116.77h.01Z"/>
  <path class="cls-1" d="M212.12,301.19c123.28-5.4,226.16,90.69,231.29,212,5.16,121.98-89.28,225.21-210.87,231.07C110.43,750.13,6.74,656.09.31,534.34c-6.45-122.23,87.98-227.73,211.81-233.15h0ZM221.21,391.38c-73.41.34-131.36,60.51-130.78,132.46.59,72.1,59.73,130.51,131.73,130.28,72.35-.23,131.11-59.22,131.02-131.58-.1-71.88-58.63-131.5-131.97-131.16h0Z"/>
  <path class="cls-1" d="M858.94,392.55c94.66-11.35,179.04,56.8,189.78,149.71,10.79,93.37-56.04,177.99-149.35,189.09-92.93,11.06-177.52-54.97-189.42-147.74-11.95-93.18,54.05-179.68,148.98-191.06h.01ZM866.88,467.03c-53.44,6.95-89.44,55.9-82.56,107.52,6.99,52.48,55.37,89.42,107.96,82.23,51.46-7.03,88.41-54.65,81.97-106.49-6.45-51.88-53.71-90.23-107.36-83.26h-.01Z"/>
</svg>