<?xml version="1.0" encoding="UTF-8"?>
<svg id="Camada_1" xmlns="http://www.w3.org/2000/svg" version="1.1" viewBox="0 0 1013.9 951.5">
  <!-- Generator: Adobe Illustrator 30.1.0, SVG Export Plug-In . SVG Version: 2.1.1 Build 136)  -->
  <defs>
    <style>
      .st0 {
        fill: #147238;
      }
    </style>
  </defs>
  <path class="st0" d="M974,309.6h0c-25.5-60.3-62-114.5-108.6-161.1-46.6-46.6-100.8-83.2-161.1-108.6C641.8,13.4,575.4,0,507,0s-134.9,13.4-197.3,39.8c-60.3,25.4-114.5,62-161.2,108.6s-83.2,100.9-108.6,161.1C13.4,372.1,0,438.5,0,507s13.4,134.9,39.8,197.3c24.2,57.3,58.5,109.2,101.7,154l10.2,10.6,94.7-94.7-9.8-10.2c-66.4-69.6-102.9-161-102.9-257.1,0-188.2,137.2-344.4,321.8-369.6v107.7h102.8v-107.7c180.5,24.9,314.8,178,321.8,370.1,4.6,125.5-46.8,197.5-102.9,256.6l-9.7,10.2,94.7,94.7,10.2-10.7c43.3-45,77.5-96.9,101.7-154,26.4-62.5,39.8-128.9,39.8-197.3s-13.4-134.9-39.8-197.3h0Z"/>
  <path class="st0" d="M683.2,319.5c-9.7-9.7-22.6-15-36.3-15s-26.6,5.3-36.3,15l-52.6,52.6c-13.6-5.4-28.1-8.2-43.2-8.2-64.5,0-117,52.5-117,117s52.5,117,117,117,63.4-13.3,85.6-36.4c21.4-22.2,32.5-51,31.4-81.2-.3-8.5-1.8-20.8-4.7-32l56.2-56.2c18.5-18.5,19.9-47.7,4.2-67.9v-.7l-4.2-4.2h0Z"/>
  <rect class="st0" x="309.4" y="805" width="395.3" height="146.6"/>
</svg>