<?xml version="1.0" encoding="UTF-8"?>
<svg id="Camada_1" data-name="Camada 1" xmlns="http://www.w3.org/2000/svg" width="1025.3" height="1038.07" viewBox="0 0 1025.3 1038.07">
  <defs>
    <style>
      .cls-1 {
        fill: #147238;
      }
    </style>
  </defs>
  <path class="cls-1" d="M1010.9,61.9c-8.6-3.4-18-1.2-24.8,5.6l-92.9,92.9C800.3,63.7,678.2,0,546.8,0h-53.8c-4.4,2.4-10,1.5-16.1,1.9C251.9,17.7,61.9,177.2,5,395.1c-1.7,6.4-.7,14.2,2.4,19.3,3.1,5.1,11,10.1,18.5,10.1h142.7c9.5,0,18.3-5.1,21.8-14.4,38.1-100.7,120.1-180.3,223.4-212.6,124.8-39.1,261-3.3,350.8,91.3l-94.5,94.7c-6.7,6.7-8.6,15.4-5,24.2s11.6,14.3,22.5,14.3h313.7c12.7,0,24-9.3,24-22.5V82.1c0-9.6-7.6-17.6-14.4-20.2Z"/>
  <path class="cls-1" d="M999.4,613.57h-142.7c-9.5,0-18.3,5.1-21.8,14.4-38.1,100.7-120.1,180.3-223.4,212.6-124.8,39.1-261,3.3-350.8-91.3l94.5-94.7c6.7-6.7,8.6-15.4,5-24.2s-11.6-14.3-22.5-14.3H24c-12.7,0-24,9.3-24,22.5v317.4c0,9.6,7.6,17.6,14.4,20.2,8.6,3.4,18,1.2,24.8-5.6l92.9-92.9c92.9,96.7,215,160.4,346.4,160.4h53.8c4.4-2.4,10-1.5,16.1-1.9,225-15.8,415-175.3,471.9-393.2,1.7-6.4.7-14.2-2.4-19.3-3.1-5.1-11-10.1-18.5-10.1Z"/>
</svg>