<?xml version="1.0" encoding="UTF-8"?>
<svg id="Camada_1" xmlns="http://www.w3.org/2000/svg" version="1.1" viewBox="0 0 1080 1080">
  <!-- Generator: Adobe Illustrator 30.1.0, SVG Export Plug-In . SVG Version: 2.1.1 Build 136)  -->
  <defs>
    <style>
      .st0 {
        fill: #147238;
      }
    </style>
  </defs>
  <path class="st0" d="M605.3,66c44.6,5.3,84.4,50.6,85.3,95.4v503c1.1,6.1,13,12.7,17.9,18,150.9,163.1-14.4,413.4-221.7,338.5-149.2-53.9-181.7-255.1-58.7-353.5l.9-509.5c1.6-43.7,42.1-86.4,85.3-91.6,18.8-2.3,72-2.3,91,0h0ZM441.2,944.4c145.7,147.5,380.5-59.7,248.2-222.3-11.3-13.9-38.2-30.2-40.4-46.7V155.7c-2.5-21.2-23.8-44.4-45.1-47.7-15.6-2.4-81.7-2.3-95.6,1.9-25.4,7.6-39.6,35.5-39.4,60.8v510.4c-1.8,11.1-17.3,17.4-24.6,24.6-66,65.5-69,171.7-3.1,238.6h0Z"/>
  <path class="st0" d="M299.9,179.9c9.6-1.7,38.7-2,46.1,4.2,7.7,6.6,8.2,34.8,1.8,41.8-9.2,10.1-59.4,11.8-62.4-7.7-2.3-14.4-3.2-35,14.5-38.2h0Z"/>
  <path class="st0" d="M347.2,335.7c-7.2,6.7-49.1,6.3-56.8.7-8.2-6.1-8.3-39.6,1.7-45.2,6.1-3.4,46.4-3.4,52.6,0,9.9,5.6,9.5,38.1,2.5,44.5h0Z"/>
  <path class="st0" d="M289.6,553.1c-7-6.5-7.4-39.1,2.5-44.5,6.1-3.4,46.4-3.4,52.6,0,4.6,2.6,6.3,7,6.9,12,1.2,11.1,2.5,29-8.8,34.8-7.8,4-46.3,4-53.1-2.3h0Z"/>
  <path class="st0" d="M289.6,618.6c7.2-6.7,45.8-6.1,54.1-1.4,10.2,5.7,9.1,23.4,7.8,33.9-.6,5-2.3,9.5-6.9,12-6.1,3.4-46.4,3.4-52.6,0-9.9-5.6-9.5-38.1-2.5-44.5h0Z"/>
  <path class="st0" d="M299.9,397.3c13.4-2.4,49.4-4.2,51.8,13.6,2.2,16,3.1,35.3-16.1,37-13.7,1.2-47.5,4.5-50.2-12.5-2.3-14.4-3.2-35,14.5-38.2h0Z"/>
  <path class="st0" d="M603.8,708.4c41,15,74.3,54.6,80.9,97.9,17.3,112.5-110.4,190.1-202.3,120.6-80-60.5-58-184.6,34-219.4v-445.9c4.8-29.8,32.3-32.1,57.7-29.3,17,1.8,27,15.3,29.1,31.4l.6,444.7h.1ZM515.7,762.1c-7.4,1.7-20.3,20.3-23.8,27.2-8.6,17.2-20.6,76.7,13.6,66.5,13.1-4,6.8-19.8,7-27,.8-24.5,9.9-27,20.8-43.5,9.2-13.7-1.1-27.1-17.6-23.2h-.1Z"/>
</svg>