<?xml version="1.0" encoding="UTF-8"?>
<svg id="Camada_1" xmlns="http://www.w3.org/2000/svg" version="1.1" viewBox="0 0 1080 1080">
  <!-- Generator: Adobe Illustrator 30.1.0, SVG Export Plug-In . SVG Version: 2.1.1 Build 136)  -->
  <defs>
    <style>
      .st0 {
        fill: #147238;
      }
    </style>
  </defs>
  <path class="st0" d="M859,613.7c-28.9-119.7-107.1-260.6-168.4-367.9-31.7-55.5-71.5-129.3-109.1-179.4-11.8-15.8-25-24.8-44.2-30.4,0,0-34.2-8.7-65.3,28.1,0,0-.1.2-.2.2-24.8,31.7-50.4,79-71.6,114.3-74,123.7-172.5,292.9-207,431.9-51.8,208.5,109.9,410.4,321.7,416.8,219,6.6,396.3-197.4,344-413.7h0ZM467.2,885.7c-5,15.1-19,24.7-34,24.7s-7.5-.6-11.2-1.8c-146.5-48.1-163-217.4-151.3-300.1,2.8-19.6,21-33.2,40.5-30.5,19.6,2.8,33.2,20.9,30.5,40.4-1,7.4-23.2,180.7,102.7,222.1,18.8,6.2,29.1,26.4,22.9,45.3h-.1Z"/>
</svg>